# xmcd
#
# Track frame offsets: 
#        150
#        15510
#        29817
#        51962
#        68957
#        91322
#        107142
#        122472
#        134375
#        149057
#        166705
#
# Disc length: 2417 seconds
#
# Revision: 4
# Processed by: cddbd v1.5.1PL2 Copyright (c) Steve Scherf et al.
# Submitted via: ExactAudioCopy v0.95b3
#
DISCID=9a096f0b
DTITLE=John Anderson - Takin' The Country Back
DYEAR=1997
DGENRE=Country
TTITLE0=Somebody Slap Me
TTITLE1=South Moon Under
TTITLE2=Sara
TTITLE3=Brown Eyed Girl
TTITLE4=Small Town
TTITLE5=Takin' The Country Back
TTITLE6=Who's Who
TTITLE7=The Fall
TTITLE8=I Used To Love Her
TTITLE9=Jump On It
TTITLE10=It's A Long Way Back
EXTD=
EXTT0=
EXTT1=
EXTT2=
EXTT3=
EXTT4=
EXTT5=
EXTT6=
EXTT7=
EXTT8=
EXTT9=
EXTT10=
PLAYORDER=
